<svg width="288" height="180" viewBox="0 0 288 180" fill="none" xmlns="http://www.w3.org/2000/svg">
<rect width="288" height="180" rx="16" fill="url(#paint0_linear_0_1)"/>
<path d="M245.691 156.016H230.699V129.243H245.691V156.016Z" fill="#FF5F00"/>
<path d="M231.66 142.627C231.66 137.196 234.219 132.358 238.204 129.241C235.29 126.961 231.612 125.6 227.615 125.6C218.153 125.6 210.483 133.223 210.483 142.627C210.483 152.031 218.153 159.654 227.615 159.654C231.612 159.654 235.29 158.294 238.204 156.014C234.219 152.896 231.66 148.058 231.66 142.627Z" fill="#EB001B"/>
<path d="M265.909 142.627C265.909 152.031 258.239 159.654 248.777 159.654C244.78 159.654 241.102 158.294 238.187 156.014C242.173 152.896 244.732 148.058 244.732 142.627C244.732 137.196 242.173 132.358 238.187 129.241C241.102 126.961 244.78 125.6 248.777 125.6C258.239 125.6 265.909 133.223 265.909 142.627Z" fill="#F79E1B"/>
<defs>
<linearGradient id="paint0_linear_0_1" x1="0" y1="0" x2="288" y2="180" gradientUnits="userSpaceOnUse">
<stop stop-color="#4B4F5B"/>
<stop offset="1" stop-color="#6B7183"/>
</linearGradient>
</defs>
</svg>
