<svg width="28" height="28" viewBox="0 0 28 28" fill="none" xmlns="http://www.w3.org/2000/svg">
<path d="M24.08 2.24H2.8C2.65148 2.24 2.50904 2.299 2.40402 2.40402C2.299 2.50904 2.24 2.65148 2.24 2.8V12.88C2.24 13.3256 2.417 13.7529 2.73206 14.0679C3.04712 14.383 3.47444 14.56 3.92 14.56H25.2C25.3485 14.56 25.491 14.501 25.596 14.396C25.701 14.291 25.76 14.1485 25.76 14V3.92C25.76 3.47443 25.583 3.04712 25.2679 2.73206C24.9529 2.417 24.5256 2.24 24.08 2.24ZM24.64 13.44H3.92C3.77148 13.44 3.62904 13.381 3.52402 13.276C3.419 13.171 3.36 13.0285 3.36 12.88V3.36H24.08C24.2285 3.36 24.371 3.419 24.476 3.52402C24.581 3.62904 24.64 3.77148 24.64 3.92V13.44ZM14 5.6C13.4462 5.6 12.9049 5.76422 12.4444 6.07188C11.9839 6.37955 11.6251 6.81685 11.4131 7.32848C11.2012 7.84012 11.1458 8.4031 11.2538 8.94625C11.3618 9.4894 11.6285 9.98831 12.0201 10.3799C12.4117 10.7715 12.9106 11.0382 13.4537 11.1462C13.9969 11.2542 14.5599 11.1988 15.0715 10.9869C15.5831 10.7749 16.0204 10.4161 16.3281 9.95559C16.6358 9.49514 16.8 8.95379 16.8 8.4C16.8 7.65739 16.505 6.9452 15.9799 6.4201C15.4548 5.895 14.7426 5.6 14 5.6ZM14 10.08C13.6677 10.08 13.3429 9.98147 13.0666 9.79687C12.7904 9.61227 12.575 9.34989 12.4479 9.04291C12.3207 8.73593 12.2875 8.39813 12.3523 8.07225C12.4171 7.74636 12.5771 7.44701 12.8121 7.21206C13.047 6.97711 13.3464 6.8171 13.6722 6.75228C13.9981 6.68746 14.3359 6.72073 14.6429 6.84788C14.9499 6.97504 15.2123 7.19037 15.3969 7.46664C15.5815 7.74291 15.68 8.06773 15.68 8.4C15.68 8.84556 15.503 9.27288 15.1879 9.58794C14.8729 9.903 14.4456 10.08 14 10.08ZM17.752 21.448C17.8056 21.4983 17.8483 21.559 17.8775 21.6264C17.9066 21.6938 17.9217 21.7665 17.9217 21.84C17.9217 21.9135 17.9066 21.9862 17.8775 22.0536C17.8483 22.121 17.8056 22.1817 17.752 22.232L14.392 25.592C14.3417 25.6456 14.281 25.6883 14.2136 25.7175C14.1462 25.7466 14.0735 25.7617 14 25.7617C13.9265 25.7617 13.8538 25.7466 13.7864 25.7175C13.719 25.6883 13.6583 25.6456 13.608 25.592L10.248 22.232C10.1965 22.1805 10.1557 22.1194 10.1278 22.0521C10.1 21.9849 10.0856 21.9128 10.0856 21.84C10.0856 21.7672 10.1 21.6951 10.1278 21.6278C10.1557 21.5606 10.1965 21.4995 10.248 21.448C10.2995 21.3965 10.3606 21.3557 10.4279 21.3278C10.4951 21.3 10.5672 21.2856 10.64 21.2856C10.7128 21.2856 10.7849 21.3 10.8521 21.3278C10.9194 21.3557 10.9805 21.3965 11.032 21.448L13.44 23.8448V17.36C13.44 17.2115 13.499 17.069 13.604 16.964C13.709 16.859 13.8515 16.8 14 16.8C14.1485 16.8 14.291 16.859 14.396 16.964C14.501 17.069 14.56 17.2115 14.56 17.36V23.8448L16.968 21.448C17.0183 21.3944 17.079 21.3517 17.1464 21.3225C17.2138 21.2934 17.2865 21.2783 17.36 21.2783C17.4335 21.2783 17.5062 21.2934 17.5736 21.3225C17.641 21.3517 17.7017 21.3944 17.752 21.448Z" fill="white"/>
</svg>
