<svg width="28" height="28" viewBox="0 0 28 28" fill="none" xmlns="http://www.w3.org/2000/svg">
<path d="M24.8528 10.08C24.2135 8.22579 23.1207 6.56091 21.6737 5.23691C20.2267 3.9129 18.4716 2.97183 16.568 2.49934C14.6645 2.02685 12.673 2.03796 10.7748 2.53165C8.87667 3.02533 7.13213 3.98593 5.7 5.32599C4.26788 6.66605 3.19365 8.34301 2.57511 10.2042C1.95657 12.0655 1.81336 14.0518 2.15852 15.9825C2.50367 17.9132 3.32622 19.7269 4.5513 21.2586C5.77639 22.7902 7.36509 23.9911 9.1728 24.752C11.2657 25.6277 13.5672 25.8799 15.8001 25.4783C18.033 25.0767 20.1023 24.0383 21.7589 22.4882C23.4155 20.9381 24.5889 18.9422 25.1378 16.7409C25.6867 14.5395 25.5877 12.2264 24.8528 10.08ZM23.3744 9.464L14.784 12.9248L18.4128 4.4016C20.6101 5.45912 22.3662 7.25483 23.3744 9.4752V9.464ZM23.52 18.1216C22.7032 20.0352 21.3432 21.6674 19.6083 22.8161C17.8734 23.9648 15.8399 24.5796 13.7592 24.5845C11.6785 24.5894 9.64205 23.9841 7.90182 22.8436C6.16159 21.703 4.79395 20.0773 3.96814 18.1675C3.14232 16.2577 2.89458 14.1477 3.25556 12.0986C3.61655 10.0494 4.57041 8.1511 5.99913 6.63849C7.42784 5.12587 9.26871 4.06534 11.2939 3.58814C13.3191 3.11093 15.4398 3.23799 17.3936 3.9536L13.216 13.7312C13.1774 13.8333 13.1689 13.9444 13.1915 14.0512C13.2141 14.158 13.2668 14.2561 13.3434 14.3338C13.42 14.4116 13.5173 14.4658 13.6237 14.49C13.7301 14.5142 13.8413 14.5074 13.944 14.4704L23.8 10.5168C24.6636 12.9972 24.5637 15.7115 23.52 18.1216Z" fill="white"/>
</svg>
