<svg width="28" height="28" viewBox="0 0 28 28" fill="none" xmlns="http://www.w3.org/2000/svg">
<path d="M24.08 13.44H2.80001C2.65148 13.44 2.50905 13.499 2.40403 13.604C2.29901 13.709 2.24001 13.8515 2.24001 14V24.08C2.24001 24.5256 2.41701 24.9529 2.73207 25.2679C3.04713 25.583 3.47444 25.76 3.92001 25.76H25.2C25.3485 25.76 25.491 25.701 25.596 25.596C25.701 25.491 25.76 25.3485 25.76 25.2V15.12C25.76 14.6744 25.583 14.2471 25.2679 13.9321C24.9529 13.617 24.5256 13.44 24.08 13.44ZM24.64 24.64H3.92001C3.77148 24.64 3.62905 24.581 3.52403 24.476C3.41901 24.371 3.36001 24.2285 3.36001 24.08V14.56H24.08C24.2285 14.56 24.371 14.619 24.476 14.724C24.581 14.829 24.64 14.9715 24.64 15.12V24.64ZM14 16.8C13.4462 16.8 12.9049 16.9642 12.4444 17.2719C11.984 17.5795 11.6251 18.0168 11.4131 18.5285C11.2012 19.0401 11.1458 19.6031 11.2538 20.1462C11.3618 20.6894 11.6285 21.1883 12.0201 21.5799C12.4117 21.9715 12.9106 22.2382 13.4538 22.3462C13.9969 22.4542 14.5599 22.3988 15.0715 22.1869C15.5832 21.9749 16.0205 21.6161 16.3281 21.1556C16.6358 20.6951 16.8 20.1538 16.8 19.6C16.8 18.8574 16.505 18.1452 15.9799 17.6201C15.4548 17.095 14.7426 16.8 14 16.8ZM14 21.28C13.6677 21.28 13.3429 21.1815 13.0666 20.9969C12.7904 20.8123 12.575 20.5499 12.4479 20.2429C12.3207 19.9359 12.2875 19.5981 12.3523 19.2722C12.4171 18.9464 12.5771 18.647 12.8121 18.4121C13.047 18.1771 13.3464 18.0171 13.6723 17.9523C13.9981 17.8875 14.3359 17.9207 14.6429 18.0479C14.9499 18.175 15.2123 18.3904 15.3969 18.6666C15.5815 18.9429 15.68 19.2677 15.68 19.6C15.68 20.0456 15.503 20.4729 15.1879 20.7879C14.8729 21.103 14.4456 21.28 14 21.28ZM10.248 6.552C10.1944 6.50172 10.1517 6.441 10.1226 6.37358C10.0934 6.30615 10.0783 6.23347 10.0783 6.16C10.0783 6.08653 10.0934 6.01384 10.1226 5.94642C10.1517 5.879 10.1944 5.81827 10.248 5.768L13.608 2.408C13.6583 2.35443 13.719 2.31173 13.7864 2.28254C13.8538 2.25336 13.9265 2.2383 14 2.2383C14.0735 2.2383 14.1462 2.25336 14.2136 2.28254C14.281 2.31173 14.3417 2.35443 14.392 2.408L17.752 5.768C17.8287 5.84627 17.8808 5.94534 17.9018 6.05294C17.9228 6.16053 17.9117 6.27191 17.87 6.37327C17.8282 6.47463 17.7577 6.56152 17.667 6.62315C17.5764 6.68478 17.4696 6.71846 17.36 6.72C17.2866 6.72089 17.2137 6.70641 17.1462 6.67747C17.0787 6.64854 17.018 6.6058 16.968 6.552L14.56 4.1552V10.64C14.56 10.7885 14.501 10.931 14.396 11.036C14.291 11.141 14.1485 11.2 14 11.2C13.8515 11.2 13.709 11.141 13.604 11.036C13.499 10.931 13.44 10.7885 13.44 10.64V4.1552L11.032 6.552C10.9817 6.60557 10.921 6.64826 10.8536 6.67745C10.7862 6.70664 10.7135 6.7217 10.64 6.7217C10.5665 6.7217 10.4938 6.70664 10.4264 6.67745C10.359 6.64826 10.2983 6.60557 10.248 6.552Z" fill="white"/>
</svg>
