<svg width="288" height="180" viewBox="0 0 288 180" fill="none" xmlns="http://www.w3.org/2000/svg">
<rect width="288" height="180" rx="16" fill="url(#paint0_linear_0_1)"/>
<path d="M233.296 153.778H227.703L231.201 133.477H236.793L233.296 153.778Z" fill="#15195A"/>
<path d="M253.569 133.973C252.465 133.563 250.716 133.109 248.553 133.109C243.03 133.109 239.141 135.873 239.117 139.825C239.071 142.741 241.901 144.361 244.018 145.333C246.182 146.326 246.917 146.975 246.917 147.86C246.895 149.22 245.169 149.847 243.559 149.847C241.326 149.847 240.13 149.524 238.312 148.768L237.575 148.443L236.793 153C238.104 153.561 240.521 154.059 243.03 154.081C248.898 154.081 252.718 151.359 252.763 147.148C252.786 144.837 251.291 143.066 248.069 141.619C246.113 140.69 244.915 140.064 244.915 139.113C244.938 138.249 245.928 137.364 248.136 137.364C249.954 137.321 251.29 137.731 252.302 138.142L252.808 138.357L253.569 133.973Z" fill="#15195A"/>
<path fill-rule="evenodd" clip-rule="evenodd" d="M263.579 133.477H267.905L272.417 153.778H267.239C267.239 153.778 266.732 151.445 266.571 150.733H259.391C259.183 151.272 258.217 153.778 258.217 153.778H252.349L260.656 135.162C261.232 133.844 262.245 133.477 263.579 133.477ZM263.235 140.906C263.235 140.906 261.463 145.42 261.002 146.586H265.65C265.42 145.571 264.361 140.712 264.361 140.712L263.971 138.963C263.806 139.413 263.568 140.032 263.407 140.45C263.299 140.733 263.225 140.924 263.235 140.906Z" fill="#15195A"/>
<path fill-rule="evenodd" clip-rule="evenodd" d="M203.472 133.477H212.469C213.689 133.52 214.679 133.887 215.001 135.184L216.956 144.51C216.956 144.511 216.957 144.512 216.957 144.513L217.555 147.321L223.032 133.477H228.946L220.155 153.757H214.241L209.257 136.117C207.537 135.173 205.574 134.414 203.38 133.887L203.472 133.477Z" fill="#15195A"/>
<defs>
<linearGradient id="paint0_linear_0_1" x1="0" y1="0" x2="288" y2="180" gradientUnits="userSpaceOnUse">
<stop stop-color="#407288"/>
<stop offset="1" stop-color="#189BD5"/>
</linearGradient>
</defs>
</svg>
