<svg width="24" height="24" viewBox="0 0 24 24" fill="none" xmlns="http://www.w3.org/2000/svg">
<g clip-path="url(#clip0_0_219)">
<path d="M12 6.47101C11.7411 6.47101 11.5312 6.68087 11.5312 6.93976V7.87548C10.4757 8.09288 9.67955 9.02935 9.67955 10.1483C9.67955 11.4278 10.7205 12.4688 12 12.4688C12.7626 12.4688 13.383 13.0891 13.383 13.8517C13.383 14.6143 12.7626 15.2347 12 15.2347C11.4808 15.2347 11.0098 14.9479 10.7708 14.4864C10.6519 14.2565 10.369 14.1666 10.1391 14.2856C9.90914 14.4046 9.81928 14.6874 9.9383 14.9174C10.2655 15.5495 10.8525 15.986 11.5312 16.1248V17.0603C11.5312 17.3192 11.7411 17.5291 12 17.5291C12.2589 17.5291 12.4688 17.3192 12.4688 17.0603V16.1246C13.5243 15.9072 14.3205 14.9707 14.3205 13.8518C14.3205 12.5722 13.2795 11.5313 12 11.5313C11.2374 11.5313 10.617 10.9109 10.617 10.1483C10.617 9.38574 11.2374 8.76535 12 8.76535C12.5192 8.76535 12.9902 9.05209 13.2292 9.51366C13.3482 9.74359 13.631 9.83345 13.861 9.71443C14.0909 9.59541 14.1808 9.31257 14.0618 9.08265C13.7345 8.45049 13.1475 8.01409 12.4688 7.87529V6.93976C12.4688 6.68087 12.2589 6.47101 12 6.47101Z" fill="currentColor"/>
<path d="M19.6048 12.3655C19.7982 12.5271 20.1097 12.4922 20.2639 12.2934L21.4992 10.7546C21.6612 10.5527 21.629 10.2577 21.427 10.0956C21.2251 9.93356 20.9301 9.96585 20.7681 10.1677L20.2775 10.7788C20.2232 10.4137 20.1454 10.0511 20.043 9.69375C19.4269 7.54542 18.0112 5.76553 16.0565 4.68201C14.1017 3.59854 11.8421 3.34101 9.69375 3.95709C7.47187 4.59417 5.59523 6.14114 4.54495 8.20129C4.42739 8.43192 4.51903 8.71425 4.74966 8.83181C4.98037 8.94942 5.26256 8.85768 5.38017 8.6271C6.3128 6.79767 7.97925 5.42395 9.95217 4.85826C11.8598 4.31123 13.8663 4.53989 15.602 5.50195C17.3377 6.46406 18.5948 8.0445 19.1418 9.95212C19.2373 10.2852 19.3094 10.6231 19.3578 10.9635L18.6546 10.3979C18.4529 10.2356 18.1578 10.2676 17.9955 10.4693C17.8333 10.671 17.8653 10.9661 18.067 11.1284L19.6045 12.3652C19.6046 12.3653 19.6047 12.3654 19.6048 12.3655Z" fill="currentColor"/>
<path d="M5.63897 13.7056C5.77603 13.7056 5.91192 13.6458 6.0045 13.5307C6.16674 13.329 6.13477 13.0339 5.93306 12.8716L4.39552 11.6347C4.20216 11.4735 3.89016 11.5071 3.73617 11.7066L2.50092 13.2454C2.33888 13.4473 2.37113 13.7423 2.57306 13.9044C2.65959 13.9739 2.76324 14.0076 2.86617 14.0076C3.00342 14.0076 3.13945 13.9476 3.23203 13.8322L3.72258 13.2211C3.77691 13.5863 3.85463 13.9488 3.95714 14.3062C4.57317 16.4546 5.98894 18.2344 7.94363 19.3179C9.20241 20.0157 10.5873 20.3708 11.9879 20.3708C12.7622 20.3708 13.5415 20.2622 14.3063 20.0429C16.5282 19.4058 18.4049 17.8588 19.4551 15.7987C19.5727 15.568 19.4811 15.2857 19.2504 15.1681C19.0198 15.0506 18.7375 15.1422 18.6199 15.3728C17.6873 17.2023 16.0208 18.576 14.0479 19.1417C12.1403 19.6886 10.1338 19.4601 8.39813 18.498C6.66244 17.5359 5.4053 15.9555 4.85831 14.0478C4.76278 13.7147 4.69074 13.3768 4.64231 13.0364L5.34549 13.6021C5.43206 13.6718 5.53584 13.7056 5.63897 13.7056Z" fill="currentColor"/>
<path fill-rule="evenodd" clip-rule="evenodd" d="M12 23.1C18.1304 23.1 23.1 18.1304 23.1 12C23.1 5.86964 18.1304 0.9 12 0.9C5.86964 0.9 0.9 5.86964 0.9 12C0.9 18.1304 5.86964 23.1 12 23.1ZM12 24C18.6274 24 24 18.6274 24 12C24 5.37258 18.6274 0 12 0C5.37258 0 0 5.37258 0 12C0 18.6274 5.37258 24 12 24Z" fill="currentColor"/>
</g>
<defs>
<clipPath id="clip0_0_219">
<rect width="24" height="24" fill="white"/>
</clipPath>
</defs>
</svg>
