<svg width="24" height="24" viewBox="0 0 24 24" fill="none" xmlns="http://www.w3.org/2000/svg">
<path d="M12 0C7.11134 0 3.13429 3.97705 3.13429 8.86571C3.13429 10.4751 3.85606 12.206 3.88631 12.279C4.11943 12.8323 4.5794 13.6918 4.91108 14.1956L10.9898 23.406C11.2386 23.7836 11.6068 24 12 24C12.3932 24 12.7614 23.7836 13.0102 23.4065L19.0894 14.1956C19.4216 13.6918 19.8811 12.8323 20.1142 12.279C20.1445 12.2065 20.8657 10.4756 20.8657 8.86571C20.8657 3.97705 16.8887 0 12 0ZM19.1525 11.8743C18.9445 12.3703 18.5163 13.1698 18.2185 13.6214L12.1392 22.8323C12.0193 23.0143 11.9812 23.0143 11.8613 22.8323L5.78201 13.6214C5.48422 13.1698 5.05606 12.3698 4.84798 11.8738C4.83911 11.8524 4.17731 10.2592 4.17731 8.86571C4.17731 4.55228 7.68657 1.04302 12 1.04302C16.3134 1.04302 19.8227 4.55228 19.8227 8.86571C19.8227 10.2613 19.1593 11.8587 19.1525 11.8743Z" fill="currentColor"/>
<path d="M12 4.17261C9.41173 4.17261 7.30639 6.27847 7.30639 8.86622C7.30639 11.454 9.41173 13.5598 12 13.5598C14.5883 13.5598 16.6936 11.454 16.6936 8.86622C16.6936 6.27847 14.5883 4.17261 12 4.17261ZM12 12.5168C9.98748 12.5168 8.34941 10.8793 8.34941 8.86622C8.34941 6.85318 9.98748 5.21563 12 5.21563C14.0125 5.21563 15.6506 6.85318 15.6506 8.86622C15.6506 10.8793 14.0125 12.5168 12 12.5168Z" fill="currentColor"/>
</svg>
