<?xml version="1.0" standalone="no"?>
<!DOCTYPE svg PUBLIC "-//W3C//DTD SVG 20010904//EN"
 "http://www.w3.org/TR/2001/REC-SVG-20010904/DTD/svg10.dtd">
<svg version="1.0" xmlns="http://www.w3.org/2000/svg"
 width="240.000000pt" height="240.000000pt" viewBox="0 0 240.000000 240.000000"
 preserveAspectRatio="xMidYMid meet">
<metadata>
Created by potrace 1.14, written by Peter Selinger 2001-2017
</metadata>
<g transform="translate(0.000000,240.000000) scale(0.100000,-0.100000)"
fill="#000000" stroke="none">
<path d="M1040 2390 c-25 -4 -61 -10 -81 -14 -65 -10 -202 -57 -281 -96 -267
-131 -469 -346 -585 -620 -134 -314 -121 -686 34 -995 264 -528 872 -785 1436
-609 384 121 692 443 796 834 29 110 32 132 36 275 3 115 -1 178 -20 285 -20
116 -97 294 -182 424 -59 90 -227 258 -319 319 -147 97 -318 165 -480 191 -94
15 -279 18 -354 6z m337 -96 c163 -28 319 -90 447 -177 75 -50 95 -68 168
-143 161 -167 243 -324 305 -588 12 -54 10 -296 -3 -371 -82 -461 -421 -807
-889 -907 -34 -7 -125 -13 -210 -12 -131 0 -164 3 -260 28 -328 83 -583 290
-730 591 -46 95 -82 204 -103 310 -4 17 -6 100 -6 185 0 136 4 168 28 260 128
493 562 833 1066 838 58 0 142 -6 187 -14z"/>
<path d="M1129 2035 c-2 -2 -27 -6 -54 -9 -220 -22 -466 -186 -592 -395 -45
-75 -42 -111 11 -116 22 -3 31 4 52 38 91 148 175 230 304 300 410 222 921 11
1059 -437 11 -37 21 -77 21 -88 0 -17 -5 -15 -40 13 -35 28 -44 31 -68 23 -19
-6 -28 -17 -30 -36 -3 -22 9 -35 70 -85 108 -88 123 -96 147 -84 11 6 33 28
48 49 15 20 30 39 33 42 3 3 21 25 39 48 29 37 33 48 25 70 -15 43 -56 41 -91
-2 -33 -42 -38 -44 -40 -14 -3 39 -44 161 -75 223 -43 85 -84 141 -148 206
-156 158 -348 244 -565 254 -56 3 -104 3 -106 0z"/>
<path d="M1166 1734 c-11 -10 -16 -34 -16 -69 0 -50 -2 -54 -30 -64 -84 -29
-150 -119 -150 -206 0 -76 16 -120 64 -169 45 -46 116 -76 180 -76 16 0 44
-10 62 -22 112 -77 57 -252 -77 -250 -35 1 -99 28 -99 42 0 3 -12 18 -26 33
-37 41 -83 24 -84 -31 0 -30 77 -106 123 -121 35 -12 37 -15 37 -57 0 -76 10
-94 50 -94 37 0 48 20 46 83 -1 46 1 50 32 63 93 38 152 122 152 214 -1 129
-86 220 -221 236 -110 12 -169 89 -138 181 20 62 63 93 129 93 47 0 77 -13
103 -47 36 -45 49 -54 71 -47 69 22 28 117 -71 165 -59 28 -60 30 -57 81 1 23
-2 50 -7 60 -12 22 -52 23 -73 2z"/>
<path d="M393 1243 c-7 -2 -45 -45 -84 -95 -65 -81 -71 -93 -63 -116 15 -43
55 -41 92 4 22 26 33 33 36 23 2 -8 12 -44 21 -82 88 -347 417 -604 780 -610
167 -3 281 23 414 94 122 66 203 135 288 249 85 115 94 168 29 175 -22 3 -31
-4 -52 -38 -126 -204 -267 -312 -480 -367 -73 -19 -260 -30 -281 -17 -5 3 -24
8 -45 11 -57 9 -128 35 -198 73 -178 96 -301 247 -360 440 -29 97 -25 112 20
73 37 -32 68 -38 88 -18 29 29 13 55 -81 132 -93 75 -100 79 -124 69z"/>
</g>
</svg>
