<svg width="28" height="28" viewBox="0 0 28 28" fill="none" xmlns="http://www.w3.org/2000/svg">
<path d="M24.08 22.4H23.52V14.56H24.08C24.5256 14.5927 24.9659 14.447 25.304 14.1551C25.6422 13.8631 25.8505 13.4488 25.8832 13.0032C25.9159 12.5576 25.7702 12.1173 25.4783 11.7792C25.1863 11.441 24.772 11.2327 24.3264 11.2L15.0528 2.9232C14.7517 2.67951 14.3761 2.54655 13.9888 2.54655C13.6015 2.54655 13.2259 2.67951 12.9248 2.9232L3.6736 11.2C3.45298 11.2162 3.23771 11.2757 3.04007 11.375C2.84243 11.4744 2.66631 11.6117 2.52175 11.7792C2.22979 12.1173 2.08413 12.5576 2.1168 13.0032C2.14948 13.4488 2.35781 13.8631 2.69598 14.1551C3.03414 14.447 3.47444 14.5927 3.92 14.56H4.48V22.4H3.92C3.47444 22.4 3.04712 22.577 2.73206 22.8921C2.417 23.2071 2.24 23.6344 2.24 24.08C2.24 24.5256 2.417 24.9529 2.73206 25.2679C3.04712 25.583 3.47444 25.76 3.92 25.76H24.08C24.5256 25.76 24.9529 25.583 25.2679 25.2679C25.583 24.9529 25.76 24.5256 25.76 24.08C25.76 23.6344 25.583 23.2071 25.2679 22.8921C24.9529 22.577 24.5256 22.4 24.08 22.4ZM22.4 22.4H20.16V14.56H22.4V22.4ZM16.24 22.4V14.56H19.04V22.4H16.24ZM8.96 22.4V14.56H11.76V22.4H8.96ZM12.88 14.56H15.12V22.4H12.88V14.56ZM13.6528 3.7968C13.7481 3.72046 13.8667 3.67886 13.9888 3.67886C14.1109 3.67886 14.2295 3.72046 14.3248 3.7968L22.6128 11.2H5.3872L13.6528 3.7968ZM3.36 12.88C3.36 12.7315 3.419 12.589 3.52402 12.484C3.62904 12.379 3.77148 12.32 3.92 12.32H24.08C24.2285 12.32 24.371 12.379 24.476 12.484C24.581 12.589 24.64 12.7315 24.64 12.88C24.64 13.0285 24.581 13.171 24.476 13.276C24.371 13.381 24.2285 13.44 24.08 13.44H3.92C3.77148 13.44 3.62904 13.381 3.52402 13.276C3.419 13.171 3.36 13.0285 3.36 12.88ZM5.6 14.56H7.84V22.4H5.6V14.56ZM24.08 24.64H3.92C3.77148 24.64 3.62904 24.581 3.52402 24.476C3.419 24.371 3.36 24.2285 3.36 24.08C3.36 23.9315 3.419 23.789 3.52402 23.684C3.62904 23.579 3.77148 23.52 3.92 23.52H24.08C24.2285 23.52 24.371 23.579 24.476 23.684C24.581 23.789 24.64 23.9315 24.64 24.08C24.64 24.2285 24.581 24.371 24.476 24.476C24.371 24.581 24.2285 24.64 24.08 24.64Z" fill="currentColor"/>
</svg>
